mtllib CollisionTest.mtl
# vertices
v 112 16 -192
v 112 16 -128
v 112 56 -128
v 112 56 -192
v 120 56 -128
v 120 16 -128
v 120 16 -192
v 120 56 -192
v 80 16 -192
v 80 16 -128
v 80 40 -128
v 80 40 -192
v 88 40 -128
v 88 16 -128
v 88 16 -192
v 88 40 -192
v -64 48 -21.33333333333336
v -64 16 -21.333333333335162
v -64 16 21.3333333333303
v -64 48 21.333333333330298
v -21.333333333330305 16 64
v -21.333333333330305 48 64
v -21.333333333328483 16 -64
v -21.333333333328127 48 -64
v 21.333333333333343 48 64
v 21.333333333335066 16 64
v 64 16 21.333333333333254
v 21.333333333335766 16 -64
v 64 16 -21.333333333338537
v 64 48 -21.333333333329698
v 21.333333333324845 48 -64
v 64 48 21.333333333331545
v -224 16 64
v -224 16 160
v -176 160 112
v -128 16 160
v -128 16 64
v -96 16 96
v -96 16 192
v -48 32 144
v 0 16 192
v 0 16 96
v 144 -32 -256
v 144 -32 256
v 192 16 256
v 192 16 -256
v 256 16 256
v 256 -32 256
v 256 -32 -256
v 256 16 -256
v -256 -32 -256
v -256 -32 256
v -256 16 256
v -256 16 -256
v 96 16 256
v 144 -32 256
v 144 -32 -256
v 96 16 -256
v 144 -32 144
v 96 16 96
v 96 16 -256
v 144 -32 -256
v 192 16 96
v 192 16 -256
v 144 -32 256
v 96 16 256
v 96 16 192
v 144 -32 144
v 192 16 256
v 192 16 192
v -288 64 -96
v -288 64 16
v -288 80 16
v -288 80 -96
v -176 80 16
v -176 64 16
v -176 64 -96
v -176 80 -96
v -624 64 -231.6190476190459
v -624 64 231.6190476190459
v -624 96 231.6190476190459
v -624 96 -231.61904761904765
v -320 96 231.6190476190459
v -320 64 231.6190476190459
v -320 64 -231.61904761904592
v -320 96 -231.61904761904762
v -576 96 -64
v -576 176 -64
v -576 176 -128
v -576 96 -128
v -448 176 -64
v -448 176 -128
v -576 128 -32
v -576 128 16
v -576 144 16
v -576 144 -32
v -528 144 16
v -528 128 16
v -528 128 -32
v -528 144 -32
v -528 112 -32
v -528 112 16
v -528 128 16
v -528 128 -32
v -480 128 16
v -480 112 16
v -480 112 -32
v -480 128 -32
v -624 144 -32
v -624 144 16
v -624 160 16
v -624 160 -32
v -576 160 16
v -576 144 16
v -576 144 -32
v -576 160 -32
v 320 -32 160
v 320 16 160
v 368 16 -64
v 368 -32 -64
v 576 -32 -240
v 576 16 -240
v 512 -32 256
v 512 16 256
v 450.3272727272913 72.43636363636713 96
v 608 16 256
v 608 -32 256
v 832 -32 32
v 768 -32 160
v 704 -32 -224
v 704 16 -224
v 688 52 107.61904761909847
v 832 16 32
v 768 16 160
v 128 16 -192
v 128 16 -32
v 128 64 -128
v 128 64 -192
v 192 64 -128
v 192 16 -32
v 192 16 -192
v 192 64 -192
v -224 16 -224
v -224 16 -128
v -224 160 -128
v -224 160 -224
v -128 160 -128
v -128 16 -128
v -128 16 -224
v -128 160 -224
v -128 16 -224
v -128 16 -208
v -128 160 -208
v -128 160 -224
v -16 160 -208
v -16 16 -208
v -16 16 -224
v -16 160 -224
v 16 -32 -496
v 16 -32 -256
v 16 16 -256
v 16 16 -496
v 256 16 -256
v 256 -32 -256
v 256 -32 -496
v 256 16 -496
v 96 16 -496
v 96 16 -336
v 96 96 -416
v 96 96 -496
v 176 96 -416
v 176 16 -336
v 176 16 -496
v 176 96 -496
v 96 16 -192
v 96 16 -128
v 96 48 -128
v 96 48 -192
v 104 48 -128
v 104 16 -128
v 104 16 -192
v 104 48 -192
v 64 16 -192
v 64 16 -128
v 64 32 -128
v 64 32 -192
v 72 32 -128
v 72 16 -128
v 72 16 -192
v 72 32 -192
v 48 16 -192
v 48 16 -128
v 48 24 -128
v 48 24 -192
v 56 24 -128
v 56 16 -128
v 56 16 -192
v 56 24 -192
v -624 64 231.6190476190459
v -624 64 256
v -624 304 256
v -624 304 231.61904761904762
v -320 304 256
v -320 64 256
v -320 64 231.61904761904592
v -320 304 231.6190476190476
v -624 64 -256
v -624 64 -231.6190476190459
v -624 304 -231.6190476190459
v -624 304 -256
v -320 304 -231.6190476190459
v -320 64 -231.6190476190459
v -320 64 -256
v -320 304 -256
v -640 64 -256
v -640 64 256
v -640 304 256
v -640 304 -256
v -624 304 256
v -624 64 256
v -624 64 -256
v -624 304 -256
v -624 288 -231.6190476190459
v -624 288 231.6190476190459
v -624 304 231.6190476190459
v -624 304 -231.61904761904765
v -320 304 231.6190476190459
v -320 288 231.6190476190459
v -320 288 -231.61904761904592
v -320 304 -231.61904761904762
v 120 16 -192
v 120 16 -128
v 120 60 -128
v 120 60 -192
v 128 60 -128
v 128 16 -128
v 128 16 -192
v 128 60 -192
v 104 16 -192
v 104 16 -128
v 104 52 -128
v 104 52 -192
v 112 52 -128
v 112 16 -128
v 112 16 -192
v 112 52 -192
v 56 16 -192
v 56 16 -128
v 56 28 -128
v 56 28 -192
v 64 28 -128
v 64 16 -128
v 64 16 -192
v 64 28 -192
v 72 16 -192
v 72 16 -128
v 72 36 -128
v 72 36 -192
v 80 36 -128
v 80 16 -128
v 80 16 -192
v 80 36 -192
v 88 16 -192
v 88 16 -128
v 88 44 -128
v 88 44 -192
v 96 44 -128
v 96 16 -128
v 96 16 -192
v 96 44 -192
v 40 16 -192
v 40 16 -128
v 40 20 -128
v 40 20 -192
v 48 20 -128
v 48 16 -128
v 48 16 -192
v 48 20 -192

# texture coordinates
vt 6 0.5
vt 4 0.5
vt 4 1.75
vt 6 1.75
vt 3.75 1.75
vt 3.5 1.75
vt 3.5 0.5
vt 3.75 0.5
vt 3.75 4
vt 3.5 4
vt 3.5 6
vt 3.75 6
vt 4 1.25
vt 6 1.25
vt 2.75 1.25
vt 2.5 1.25
vt 2.5 0.5
vt 2.75 0.5
vt 2.75 4
vt 2.5 4
vt 2.5 6
vt 2.75 6
vt 0.6666667 1.5
vt 0.6666667 0.5
vt -0.6666667 0.5
vt -0.6666667 1.5
vt -2 0.5
vt -2 1.5
vt 2 -0.6666667
vt 0.6666667 -2
vt -0.6666667 -2
vt -2 -0.6666667
vt -2 0.6666667
vt -0.6666667 2
vt 0.6666667 2
vt 2 0.6666667
vt 1 0.33333334
vt 0.33333334 1
vt -0.33333334 1
vt -1 0.33333334
vt -1 -0.33333334
vt -0.33333334 -1
vt 0.33333334 -1
vt 1 -0.33333334
vt 2 0.5
vt 2 1.5
vt -5 0.5
vt -3.5 5
vt -5.5 5
vt -7 0.5
vt -4 0.5
vt -4 -5
vt -7 -5
vt -7 -2
vt -4 -2
vt -3 -3
vt -3 -6
vt -1.5 -4.5
vt 0 -6
vt 0 -3
vt 4.5 8
vt 4.5 -8
vt 6 -8
vt 6 8
vt 8 0.5
vt 4.5 -1
vt 8 -1
vt 8 -8
vt 8 8
vt -8 0.5
vt -8 -1
vt 3 0.5
vt -8 -8
vt -8 8
vt 3 8
vt 3 -8
vt 4.5 -4.5
vt 3 -3
vt 6 -3
vt 3 -6
vt 6 -6
vt 3 2
vt -0.5 2
vt -0.5 2.5
vt 3 2.5
vt -5.5 2.5
vt -9 2.5
vt -9 2
vt -5.5 2
vt -5.5 -0.5
vt -9 -0.5
vt -9 3
vt -5.5 3
vt 7.2380953 2
vt -7.2380953 2
vt -7.2380953 3
vt 7.2380953 3
vt -10 3
vt -19.5 3
vt -19.5 2
vt -10 2
vt -10 -7.2380953
vt -19.5 -7.2380953
vt -19.5 7.2380953
vt -10 7.2380953
vt 2 3
vt 2 5.5
vt 4 5.5
vt 4 3
vt -14 5.5
vt -18 5.5
vt -18 3
vt -14 4
vt -18 4
vt -18 2
vt -14 2
vt 1 4
vt -0.5 4
vt -0.5 4.5
vt 1 4.5
vt -16.5 4.5
vt -18 4.5
vt -16.5 4
vt -16.5 -0.5
vt -18 -0.5
vt -18 1
vt -16.5 1
vt 1 3.5
vt -0.5 3.5
vt -15 4
vt -16.5 3.5
vt -15 3.5
vt -15 -0.5
vt -15 1
vt -0.5 5
vt 1 5
vt -18 5
vt -19.5 5
vt -19.5 4.5
vt -19.5 -0.5
vt -19.5 1
vt -5 -1
vt 2 -1
vt 18 -1
vt 11.5 -1
vt 11.5 0.5
vt 18 0.5
vt 16 -1
vt 16 0.5
vt 10 0.5
vt 10 -1
vt 14.072727 -3
vt 11.5 2
vt 10 -5
vt 18 7.5
vt 14.072727 -2.1000004
vt 10 -4.1000004
vt 16 -7.1000004
vt 19 0.5
vt 19 -1
vt 16 -8
vt 19 -8
vt 26 -1
vt 24 -5
vt 22 7
vt 21.5 -3.3630953
vt 22 -1
vt 22 0.5
vt 24 -0.31428576
vt 19 -0.31428576
vt 19 -1.8142858
vt 24 -1.8142858
vt -1 0.5
vt -1 -1
vt 7 -1
vt 7 0.5
vt 1 0.5
vt 4 2
vt 6 2
vt 6 4
vt 4 4
vt 4 1
vt 6 1
vt 4 6
vt 6 6
vt 4 5
vt 7 5
vt -4 5
vt -7 5
vt -4 4
vt -7 4
vt -7 7
vt -4 7
vt 6.5 0.5
vt 6.5 5
vt -0.5 0.5
vt -0.5 6.5
vt -4 6.5
vt -0.5 7
vt 15.5 -1
vt 15.5 0.5
vt 0.5 0.5
vt 0.5 -1
vt 0.5 8
vt 0.5 15.5
vt 8 15.5
vt 10.5 0.5
vt 13 3
vt 15.5 3
vt 5.5 13
vt 3 13
vt 3 10.5
vt 5.5 10.5
vt 3 15.5
vt 5.5 15.5
vt 5.5 0.5
vt 3 3
vt 5.5 3
vt 4 1.5
vt 6 1.5
vt 3.25 1.5
vt 3 1.5
vt 3.25 0.5
vt 3.25 4
vt 3 4
vt 3 6
vt 3.25 6
vt 2.25 1
vt 2 1
vt 2.25 0.5
vt 2.25 4
vt 2 4
vt 2 6
vt 2.25 6
vt 4 0.75
vt 6 0.75
vt 1.75 0.75
vt 1.5 0.75
vt 1.5 0.5
vt 1.75 0.5
vt 1.75 4
vt 1.5 4
vt 1.5 6
vt 1.75 6
vt -8 2
vt -8 9.5
vt -7.2380953 9.5
vt -10 9.5
vt -19.5 9.5
vt -10 -8
vt -19.5 -8
vt 8 2
vt 7.2380953 9.5
vt 8 9.5
vt -19.5 8
vt -10 8
vt -20 9.5
vt -20 2
vt -20 -8
vt -20 8
vt 7.2380953 9
vt -7.2380953 9
vt -19.5 9
vt -10 9
vt 4 1.875
vt 6 1.875
vt 3.75 1.875
vt 4 1.625
vt 6 1.625
vt 3.5 1.625
vt 3.25 1.625
vt 4 0.875
vt 6 0.875
vt 2 0.875
vt 1.75 0.875
vt 4 1.125
vt 6 1.125
vt 2.5 1.125
vt 2.25 1.125
vt 4 1.375
vt 6 1.375
vt 3 1.375
vt 2.75 1.375
vt 4 0.625
vt 6 0.625
vt 1.5 0.625
vt 1.25 0.625
vt 1.25 0.5
vt 1.25 4
vt 1.25 6

# normals
vn -1 0 -0
vn 0 0 1
vn 0 -1 -0
vn 0 1 -0
vn 0 0 -1
vn 1 0 -0
vn -0.7071067811865476 0 0.7071067811865476
vn -0.7071067811865042 3.9801843827631255e-14 -0.7071067811865909
vn 0.7071067811865246 1.6615503444022535e-13 -0.7071067811865706
vn 0.7071067811865624 3.850651754921878e-14 0.7071067811865326
vn -0.9486832980505138 0.31622776601683794 -0
vn 0 0.31622776601683794 0.9486832980505138
vn -0 0.31622776601683794 -0.9486832980505138
vn 0.9486832980505138 0.31622776601683794 -0
vn -0.31622776601683794 0.9486832980505138 -0
vn 0 0.9486832980505138 0.31622776601683794
vn -0 0.9486832980505138 -0.31622776601683794
vn 0.31622776601683794 0.9486832980505138 -0
vn -0.7071067811865476 0.7071067811865476 -0
vn 0.7071067811865476 0.7071067811865476 -0
vn -0.7071067811865476 -0.7071067811865476 0
vn 0 0.7071067811865476 0.7071067811865476
vn 0.7071067811865475 -0.7071067811865475 -0
vn -0 0.7071067811865476 -0.7071067811865476
vn 0.7071067811865476 -0.7071067811865476 -0
vn 0.52999894000318 -0.847998304005088 -0
vn -0.9778024140774095 0 -0.20952908873087348
vn -0.6459422414661738 0 -0.7633862853691146
vn -0.4472135954999579 0 0.8944271909999159
vn -0.4337422873025189 0.8962303815691991 -0.09294477585053977
vn -0.19792920149716337 0.9518966236951165 -0.2339163290421022
vn -0.19629796632803254 0.8985185262850137 0.39259593265606507
vn 0 0.9430536264158091 0.33264073368123664
vn 0.01980066870607573 0.9871756068306667 -0.15840534964860584
vn 0.06935059183622226 0.9602563782028607 0.2703667574475279
vn 0.09021802163036838 0.9905626686546226 -0.10318094805212286
vn 0.12403473458920847 -0 -0.9922778767136677
vn 0.19332860897573168 0.9763606204622275 -0.09666430448786584
vn 0.19851720672114792 0.9225623275308059 0.33086201120191316
vn 0.3170063510286993 0.9350848714204162 0.15850317551434964
vn 0.5144957554275266 0 0.8574929257125442
vn 0.8944271909999159 0 0.4472135954999579
vn 0.8944271909999159 -0 -0.4472135954999579
vn 0 0.8944271909999159 0.4472135954999579
vn 0 0.7071067811865475 0.7071067811865475

o entity0_brush0
usemtl __TB_empty
f  1/1/1  2/2/1  3/3/1  4/4/1
usemtl __TB_empty
f  5/5/2  3/6/2  2/7/2  6/8/2
usemtl __TB_empty
f  6/9/3  2/10/3  1/11/3  7/12/3
usemtl __TB_empty
f  8/12/4  4/11/4  3/10/4  5/9/4
usemtl __TB_empty
f  7/8/5  1/7/5  4/6/5  8/5/5
usemtl __TB_empty
f  8/4/6  5/3/6  6/2/6  7/1/6

o entity0_brush1
usemtl __TB_empty
f  9/1/1  10/2/1  11/13/1  12/14/1
usemtl __TB_empty
f  13/15/2  11/16/2  10/17/2  14/18/2
usemtl __TB_empty
f  14/19/3  10/20/3  9/21/3  15/22/3
usemtl __TB_empty
f  16/22/4  12/21/4  11/20/4  13/19/4
usemtl __TB_empty
f  15/18/5  9/17/5  12/16/5  16/15/5
usemtl __TB_empty
f  16/14/6  13/13/6  14/2/6  15/1/6

o entity0_brush2
usemtl __TB_empty
f  17/23/1  18/24/1  19/25/1  20/26/1
usemtl __TB_empty
f  20/26/7  19/25/7  21/27/7  22/28/7
usemtl __TB_empty
f  23/25/8  18/27/8  17/28/8  24/26/8
usemtl __TB_empty
f  25/23/2  22/26/2  21/25/2  26/24/2
usemtl __TB_empty
f  27/29/3  26/30/3  21/31/3  19/32/3  18/33/3  23/34/3  28/35/3  29/36/3
usemtl grass
f  30/37/4  31/38/4  24/39/4  17/40/4  20/41/4  22/42/4  25/43/4  32/44/4
usemtl __TB_empty
f  28/24/5  23/25/5  24/26/5  31/23/5
usemtl __TB_empty
f  29/45/9  28/24/9  31/23/9  30/46/9
usemtl __TB_empty
f  32/26/10  25/28/10  26/27/10  27/25/10
usemtl __TB_empty
f  29/24/6  30/23/6  32/26/6  27/25/6

o entity0_brush3
usemtl __TB_empty
f  33/27/11  34/47/11  35/48/11
usemtl __TB_empty
f  35/49/12  34/50/12  36/51/12
usemtl __TB_empty
f  36/52/3  34/53/3  33/54/3  37/55/3
usemtl __TB_empty
f  37/51/13  33/50/13  35/49/13
usemtl __TB_empty
f  36/47/14  37/27/14  35/48/14

o entity0_brush4
usemtl __TB_empty
f  38/56/15  39/57/15  40/58/15
usemtl __TB_empty
f  40/58/16  39/57/16  41/59/16
usemtl __TB_empty
f  41/59/3  39/57/3  38/56/3  42/60/3
usemtl __TB_empty
f  42/60/17  38/56/17  40/58/17
usemtl __TB_empty
f  41/59/18  42/60/18  40/58/18

o entity0_brush5
usemtl __TB_empty
f  43/61/19  44/62/19  45/63/19  46/64/19
usemtl __TB_empty
f  47/65/2  45/1/2  44/66/2  48/67/2
usemtl __TB_empty
f  48/68/3  44/62/3  43/61/3  49/69/3
usemtl __TB_empty
f  50/69/4  46/64/4  45/63/4  47/68/4
usemtl __TB_empty
f  49/67/5  43/66/5  46/1/5  50/65/5
usemtl __TB_empty
f  50/65/6  47/70/6  48/71/6  49/67/6

o entity0_brush6
usemtl __TB_empty
f  51/67/1  52/71/1  53/70/1  54/65/1
usemtl __TB_empty
f  55/72/2  53/70/2  52/71/2  56/66/2
usemtl __TB_empty
f  56/62/3  52/73/3  51/74/3  57/61/3
usemtl __TB_empty
f  58/75/4  54/74/4  53/73/4  55/76/4
usemtl __TB_empty
f  57/66/5  51/71/5  54/70/5  58/72/5
usemtl __TB_empty
f  58/75/20  55/76/20  56/62/20  57/61/20

o entity0_brush7
usemtl __TB_empty
f  59/77/21  60/78/21  61/75/21  62/61/21
usemtl __TB_empty
f  63/79/22  60/78/22  59/77/22
usemtl __TB_empty
f  64/64/4  61/75/4  60/78/4  63/79/4
usemtl __TB_empty
f  62/66/5  61/72/5  64/1/5
usemtl __TB_empty
f  64/64/23  63/79/23  59/77/23  62/61/23

o entity0_brush8
usemtl __TB_empty
f  65/62/21  66/76/21  67/80/21  68/77/21
usemtl __TB_empty
f  69/1/2  66/72/2  65/66/2
usemtl __TB_empty
f  70/81/4  67/80/4  66/76/4  69/63/4
usemtl __TB_empty
f  68/77/24  67/80/24  70/81/24
usemtl __TB_empty
f  70/81/25  69/63/25  65/62/25  68/77/25

o entity0_brush9
usemtl __TB_empty
f  71/82/1  72/83/1  73/84/1  74/85/1
usemtl __TB_empty
f  75/86/2  73/87/2  72/88/2  76/89/2
usemtl __TB_empty
f  76/90/3  72/91/3  71/92/3  77/93/3
usemtl __TB_empty
f  78/93/4  74/92/4  73/91/4  75/90/4
usemtl __TB_empty
f  77/89/5  71/88/5  74/87/5  78/86/5
usemtl __TB_empty
f  78/85/6  75/84/6  76/83/6  77/82/6

o entity0_brush10
usemtl __TB_empty
f  79/94/1  80/95/1  81/96/1  82/97/1
usemtl __TB_empty
f  83/98/2  81/99/2  80/100/2  84/101/2
usemtl __TB_empty
f  84/102/3  80/103/3  79/104/3  85/105/3
usemtl __TB_empty
f  86/105/4  82/104/4  81/103/4  83/102/4
usemtl __TB_empty
f  85/101/5  79/100/5  82/99/5  86/98/5
usemtl __TB_empty
f  86/97/6  83/96/6  84/95/6  85/94/6

o entity0_brush11
usemtl __TB_empty
f  87/106/1  88/107/1  89/108/1  90/109/1
usemtl __TB_empty
f  91/110/2  88/111/2  87/112/2
usemtl __TB_empty
f  92/113/4  89/114/4  88/115/4  91/116/4
usemtl __TB_empty
f  90/112/5  89/111/5  92/110/5
usemtl __TB_empty
f  92/113/26  91/116/26  87/115/26  90/114/26

o entity0_brush12
usemtl __TB_empty
f  93/117/1  94/118/1  95/119/1  96/120/1
usemtl __TB_empty
f  97/121/2  95/122/2  94/114/2  98/123/2
usemtl __TB_empty
f  98/124/3  94/125/3  93/126/3  99/127/3
usemtl __TB_empty
f  100/127/4  96/126/4  95/125/4  97/124/4
usemtl __TB_empty
f  99/123/5  93/114/5  96/122/5  100/121/5
usemtl __TB_empty
f  100/120/6  97/119/6  98/118/6  99/117/6

o entity0_brush13
usemtl __TB_empty
f  101/128/1  102/129/1  103/118/1  104/117/1
usemtl __TB_empty
f  105/130/2  103/123/2  102/131/2  106/132/2
usemtl __TB_empty
f  106/133/3  102/124/3  101/127/3  107/134/3
usemtl __TB_empty
f  108/134/4  104/127/4  103/124/4  105/133/4
usemtl __TB_empty
f  107/132/5  101/131/5  104/123/5  108/130/5
usemtl __TB_empty
f  108/117/6  105/118/6  106/129/6  107/128/6

o entity0_brush14
usemtl __TB_empty
f  109/120/1  110/119/1  111/135/1  112/136/1
usemtl __TB_empty
f  113/137/2  111/138/2  110/139/2  114/122/2
usemtl __TB_empty
f  114/125/3  110/140/3  109/141/3  115/126/3
usemtl __TB_empty
f  116/126/4  112/141/4  111/140/4  113/125/4
usemtl __TB_empty
f  115/122/5  109/139/5  112/138/5  116/137/5
usemtl __TB_empty
f  116/136/6  113/135/6  114/119/6  115/120/6

o entity0_brush15
usemtl __TB_empty
f  117/142/27  118/47/27  119/45/27  120/143/27
usemtl __TB_empty
f  121/144/28  120/145/28  119/146/28  122/147/28
usemtl __TB_empty
f  123/148/29  124/149/29  118/150/29  117/151/29
usemtl __TB_empty
f  125/152/30  119/153/30  118/154/30
usemtl __TB_empty
f  122/155/31  119/153/31  125/152/31
usemtl __TB_empty
f  125/156/32  118/157/32  124/158/32
usemtl __TB_empty
f  126/159/2  124/149/2  123/148/2  127/160/2
usemtl __TB_empty
f  125/152/33  124/161/33  126/162/33
usemtl __TB_empty
f  128/163/3  129/164/3  127/162/3  123/161/3  117/154/3  120/153/3  121/155/3  130/165/3
usemtl __TB_empty
f  122/155/34  125/152/34  131/165/34
usemtl __TB_empty
f  132/166/35  125/152/35  126/162/35
usemtl __TB_empty
f  131/165/36  125/152/36  132/166/36
usemtl __TB_empty
f  130/167/37  121/144/37  122/147/37  131/168/37
usemtl __TB_empty
f  131/165/38  132/166/38  133/163/38
usemtl __TB_empty
f  134/164/39  132/166/39  126/162/39
usemtl __TB_empty
f  133/163/40  132/166/40  134/164/40
usemtl __TB_empty
f  134/169/41  126/170/41  127/171/41  129/172/41
usemtl __TB_empty
f  133/173/42  134/47/42  129/142/42  128/174/42
usemtl __TB_empty
f  128/174/43  130/175/43  131/176/43  133/173/43

o entity0_brush16
usemtl __TB_empty
f  135/1/1  136/177/1  137/178/1  138/179/1
usemtl __TB_empty
f  139/180/44  137/181/44  136/182/44  140/183/44
usemtl __TB_empty
f  140/183/3  136/182/3  135/184/3  141/185/3
usemtl __TB_empty
f  142/185/4  138/184/4  137/181/4  139/180/4
usemtl __TB_empty
f  141/1/5  135/2/5  138/178/5  142/179/5
usemtl __TB_empty
f  142/179/6  139/178/6  140/177/6  141/1/6

o entity0_brush17
usemtl __TB_empty
f  143/176/1  144/2/1  145/186/1  146/187/1
usemtl __TB_empty
f  147/188/2  145/189/2  144/50/2  148/51/2
usemtl __TB_empty
f  148/190/3  144/191/3  143/192/3  149/193/3
usemtl __TB_empty
f  150/193/4  146/192/4  145/191/4  147/190/4
usemtl __TB_empty
f  149/51/5  143/50/5  146/189/5  150/188/5
usemtl __TB_empty
f  150/187/6  147/186/6  148/2/6  149/176/6

o entity0_brush18
usemtl __TB_empty
f  151/176/1  152/194/1  153/195/1  154/187/1
usemtl __TB_empty
f  155/135/2  153/188/2  152/51/2  156/196/2
usemtl __TB_empty
f  156/197/3  152/198/3  151/193/3  157/199/3
usemtl __TB_empty
f  158/199/4  154/193/4  153/198/4  155/197/4
usemtl __TB_empty
f  157/196/5  151/51/5  154/188/5  158/135/5
usemtl __TB_empty
f  158/187/6  155/195/6  156/194/6  157/176/6

o entity0_brush19
usemtl __TB_empty
f  159/200/1  160/67/1  161/65/1  162/201/1
usemtl __TB_empty
f  163/65/2  161/202/2  160/203/2  164/67/2
usemtl __TB_empty
f  164/69/3  160/204/3  159/205/3  165/206/3
usemtl __TB_empty
f  166/206/4  162/205/4  161/204/4  163/69/4
usemtl __TB_empty
f  165/67/5  159/203/5  162/202/5  166/65/5
usemtl __TB_empty
f  166/201/6  163/65/6  164/67/6  165/200/6

o entity0_brush20
usemtl __TB_empty
f  167/201/1  168/207/1  169/208/1  170/209/1
usemtl __TB_empty
f  171/210/45  169/211/45  168/212/45  172/213/45
usemtl __TB_empty
f  172/213/3  168/212/3  167/214/3  173/215/3
usemtl __TB_empty
f  174/215/4  170/214/4  169/211/4  171/210/4
usemtl __TB_empty
f  173/216/5  167/72/5  170/217/5  174/218/5
usemtl __TB_empty
f  174/209/6  171/208/6  172/207/6  173/201/6

o entity0_brush21
usemtl __TB_empty
f  175/1/1  176/2/1  177/219/1  178/220/1
usemtl __TB_empty
f  179/221/2  177/222/2  176/72/2  180/223/2
usemtl __TB_empty
f  180/224/3  176/225/3  175/226/3  181/227/3
usemtl __TB_empty
f  182/227/4  178/226/4  177/225/4  179/224/4
usemtl __TB_empty
f  181/223/5  175/72/5  178/222/5  182/221/5
usemtl __TB_empty
f  182/220/6  179/219/6  180/2/6  181/1/6

o entity0_brush22
usemtl __TB_empty
f  183/1/1  184/2/1  185/182/1  186/183/1
usemtl __TB_empty
f  187/228/2  185/229/2  184/45/2  188/230/2
usemtl __TB_empty
f  188/231/3  184/232/3  183/233/3  189/234/3
usemtl __TB_empty
f  190/234/4  186/233/4  185/232/4  187/231/4
usemtl __TB_empty
f  189/230/5  183/45/5  186/229/5  190/228/5
usemtl __TB_empty
f  190/183/6  187/182/6  188/2/6  189/1/6

o entity0_brush23
usemtl __TB_empty
f  191/1/1  192/2/1  193/235/1  194/236/1
usemtl __TB_empty
f  195/237/2  193/238/2  192/239/2  196/240/2
usemtl __TB_empty
f  196/241/3  192/242/3  191/243/3  197/244/3
usemtl __TB_empty
f  198/244/4  194/243/4  193/242/4  195/241/4
usemtl __TB_empty
f  197/240/5  191/239/5  194/238/5  198/237/5
usemtl __TB_empty
f  198/236/6  195/235/6  196/2/6  197/1/6

o entity0_brush24
usemtl __TB_empty
f  199/95/1  200/245/1  201/246/1  202/247/1
usemtl __TB_empty
f  203/248/2  201/249/2  200/100/2  204/101/2
usemtl __TB_empty
f  204/250/3  200/251/3  199/103/3  205/102/3
usemtl __TB_empty
f  206/102/4  202/103/4  201/251/4  203/250/4
usemtl __TB_empty
f  205/101/5  199/100/5  202/249/5  206/248/5
usemtl __TB_empty
f  206/247/6  203/246/6  204/245/6  205/95/6

o entity0_brush25
usemtl __TB_empty
f  207/252/1  208/94/1  209/253/1  210/254/1
usemtl __TB_empty
f  211/248/2  209/249/2  208/100/2  212/101/2
usemtl __TB_empty
f  212/105/3  208/104/3  207/255/3  213/256/3
usemtl __TB_empty
f  214/256/4  210/255/4  209/104/4  211/105/4
usemtl __TB_empty
f  213/101/5  207/100/5  210/249/5  214/248/5
usemtl __TB_empty
f  214/254/6  211/253/6  212/94/6  213/252/6

o entity0_brush26
usemtl __TB_empty
f  215/252/1  216/245/1  217/246/1  218/254/1
usemtl __TB_empty
f  219/249/2  217/257/2  216/258/2  220/100/2
usemtl __TB_empty
f  220/251/3  216/259/3  215/260/3  221/255/3
usemtl __TB_empty
f  222/255/4  218/260/4  217/259/4  219/251/4
usemtl __TB_empty
f  221/100/5  215/258/5  218/257/5  222/249/5
usemtl __TB_empty
f  222/254/6  219/246/6  220/245/6  221/252/6

o entity0_brush27
usemtl __TB_empty
f  223/261/1  224/262/1  225/247/1  226/253/1
usemtl __TB_empty
f  227/248/2  225/249/2  224/263/2  228/264/2
usemtl __TB_empty
f  228/102/3  224/103/3  223/104/3  229/105/3
usemtl __TB_empty
f  230/105/4  226/104/4  225/103/4  227/102/4
usemtl __TB_empty
f  229/264/5  223/263/5  226/249/5  230/248/5
usemtl __TB_empty
f  230/253/6  227/247/6  228/262/6  229/261/6

o entity0_brush28
usemtl __TB_empty
f  231/1/1  232/2/1  233/265/1  234/266/1
usemtl __TB_empty
f  235/265/2  233/267/2  232/8/2  236/2/2
usemtl __TB_empty
f  236/181/3  232/9/3  231/12/3  237/184/3
usemtl __TB_empty
f  238/184/4  234/12/4  233/9/4  235/181/4
usemtl __TB_empty
f  237/2/5  231/8/5  234/267/5  238/265/5
usemtl __TB_empty
f  238/266/6  235/265/6  236/2/6  237/1/6

o entity0_brush29
usemtl __TB_empty
f  239/1/1  240/2/1  241/268/1  242/269/1
usemtl __TB_empty
f  243/270/2  241/271/2  240/223/2  244/7/2
usemtl __TB_empty
f  244/10/3  240/224/3  239/227/3  245/11/3
usemtl __TB_empty
f  246/11/4  242/227/4  241/224/4  243/10/4
usemtl __TB_empty
f  245/7/5  239/223/5  242/271/5  246/270/5
usemtl __TB_empty
f  246/269/6  243/268/6  244/2/6  245/1/6

o entity0_brush30
usemtl __TB_empty
f  247/1/1  248/2/1  249/272/1  250/273/1
usemtl __TB_empty
f  251/274/2  249/275/2  248/240/2  252/45/2
usemtl __TB_empty
f  252/232/3  248/241/3  247/244/3  253/233/3
usemtl __TB_empty
f  254/233/4  250/244/4  249/241/4  251/232/4
usemtl __TB_empty
f  253/45/5  247/240/5  250/275/5  254/274/5
usemtl __TB_empty
f  254/273/6  251/272/6  252/2/6  253/1/6

o entity0_brush31
usemtl __TB_empty
f  255/1/1  256/2/1  257/276/1  258/277/1
usemtl __TB_empty
f  259/278/2  257/279/2  256/230/2  260/17/2
usemtl __TB_empty
f  260/20/3  256/231/3  255/234/3  261/21/3
usemtl __TB_empty
f  262/21/4  258/234/4  257/231/4  259/20/4
usemtl __TB_empty
f  261/17/5  255/230/5  258/279/5  262/278/5
usemtl __TB_empty
f  262/277/6  259/276/6  260/2/6  261/1/6

o entity0_brush32
usemtl __TB_empty
f  263/1/1  264/2/1  265/280/1  266/281/1
usemtl __TB_empty
f  267/282/2  265/283/2  264/18/2  268/72/2
usemtl __TB_empty
f  268/225/3  264/19/3  263/22/3  269/226/3
usemtl __TB_empty
f  270/226/4  266/22/4  265/19/4  267/225/4
usemtl __TB_empty
f  269/72/5  263/18/5  266/283/5  270/282/5
usemtl __TB_empty
f  270/281/6  267/280/6  268/2/6  269/1/6

o entity0_brush33
usemtl __TB_empty
f  271/1/1  272/2/1  273/284/1  274/285/1
usemtl __TB_empty
f  275/286/2  273/287/2  272/288/2  276/239/2
usemtl __TB_empty
f  276/242/3  272/289/3  271/290/3  277/243/3
usemtl __TB_empty
f  278/243/4  274/290/4  273/289/4  275/242/4
usemtl __TB_empty
f  277/239/5  271/288/5  274/287/5  278/286/5
usemtl __TB_empty
f  278/285/6  275/284/6  276/2/6  277/1/6

